<svg width="125" height="109" viewBox="0 0 125 109" fill="none" xmlns="http://www.w3.org/2000/svg">
<g filter="url(#filter0_d_6_5364)">
<path d="M44.4369 100.682H82.0057C84.4575 100.682 86.4451 98.5696 86.4451 95.9635V95.2766C86.4451 92.6705 84.4575 90.5579 82.0057 90.5579H44.4369C41.9851 90.5579 39.9975 92.6705 39.9975 95.2766V95.9635C39.9975 98.5696 41.9851 100.682 44.4369 100.682Z" fill="#263238"/>
<path d="M61.6026 25.8186H64.8461V8.38829H61.6026V25.8186Z" fill="#263238"/>
<path d="M112.818 77.7095C117.94 76.4157 121.104 70.9541 119.887 65.5107C118.67 60.0672 113.532 56.7033 108.41 57.9971C103.289 59.2909 100.124 64.7525 101.342 70.1959C102.559 75.6393 107.697 79.0033 112.818 77.7095Z" fill="#407BFF"/>
<path d="M16.5117 77.0516C21.6452 75.8139 24.8628 70.3873 23.6984 64.9308C22.534 59.4744 17.4285 56.0543 12.295 57.292C7.16151 58.5297 3.94395 63.9564 5.10836 69.4128C6.27278 74.8693 11.3782 78.2893 16.5117 77.0516Z" fill="#407BFF"/>
<path d="M61.3368 22.0372C61.3368 22.0372 22.5841 21.5429 16.4596 57.2445C10.335 92.9461 43.096 93.5881 52.5244 94.2622C56.7947 94.5704 65.9392 94.6025 74.0087 94.4484C91.875 94.121 104.499 90.4487 108.793 72.8322C109.304 70.7666 109.626 68.6531 109.753 66.5214C110.883 47.1843 98.6035 21.087 61.3368 22.0372Z" fill="#407BFF"/>
<path d="M89.4469 76.3761L33.1481 77.307C31.7434 77.3333 30.3476 77.065 29.0406 76.5173C27.7336 75.9695 26.541 75.1532 25.5312 74.115C24.5214 73.0769 23.7141 71.8372 23.1555 70.467C22.597 69.0967 22.2981 67.6229 22.2761 66.1298C22.2521 64.6364 22.5053 63.1526 23.0213 61.7633C23.5373 60.3741 24.3058 59.1066 25.283 58.0333C26.2603 56.96 27.427 56.102 28.7164 55.5084C30.0059 54.9148 31.3928 54.5972 32.7978 54.5738L89.0966 53.6429C90.5015 53.6157 91.8977 53.8834 93.205 54.4308C94.5124 54.9783 95.7053 55.7945 96.7153 56.8329C97.7253 57.8712 98.5325 59.1113 99.0908 60.4819C99.6491 61.8525 99.9474 63.3267 99.9686 64.8201C99.9934 66.3137 99.7407 67.7978 99.2251 69.1875C98.7094 70.5771 97.9408 71.845 96.9635 72.9184C95.9861 73.9919 94.8191 74.8499 93.5293 75.4432C92.2395 76.0365 90.8522 76.3535 89.4469 76.3761Z" fill="#263238"/>
<path d="M44.8476 64.8907C44.7167 65.5983 44.3913 66.2487 43.9126 66.7598C43.4339 67.2708 42.8234 67.6195 42.1583 67.7618C41.4932 67.9041 40.8033 67.8336 40.1759 67.5592C39.5485 67.2848 39.0117 66.8188 38.6334 66.2201C38.2552 65.6215 38.0523 64.9171 38.0507 64.196C38.049 63.4748 38.2485 62.7693 38.624 62.1687C38.9995 61.5681 39.5341 61.0993 40.1602 60.8216C40.7864 60.5439 41.4759 60.4698 42.1417 60.6086C42.5839 60.7008 43.0048 60.8847 43.3801 61.1498C43.7555 61.4149 44.078 61.7561 44.3293 62.1537C44.5806 62.5514 44.7557 62.9978 44.8447 63.4674C44.9336 63.937 44.9346 64.4207 44.8476 64.8907Z" fill="white"/>
<path d="M84.162 64.223C84.0321 64.9312 83.7076 65.5824 83.2294 66.0945C82.7512 66.6065 82.1409 66.9562 81.4756 67.0994C80.8104 67.2427 80.1201 67.1729 79.4922 66.899C78.8642 66.6251 78.3268 66.1594 77.948 65.5608C77.5692 64.9621 77.3659 64.2575 77.3639 63.5361C77.3619 62.8146 77.5613 62.1087 77.9369 61.5078C78.3125 60.9068 78.8473 60.4378 79.4737 60.16C80.1002 59.8822 80.79 59.8082 81.4561 59.9473C82.348 60.1336 83.1339 60.6885 83.6412 61.4901C84.1486 62.2918 84.3359 63.2747 84.162 64.223Z" fill="white"/>
<path d="M67.0075 12.0527C69.095 9.83386 69.095 6.23641 67.0075 4.01757C64.92 1.79872 61.5355 1.79873 59.448 4.01757C57.3605 6.23641 57.3605 9.83386 59.448 12.0527C61.5355 14.2715 64.92 14.2715 67.0075 12.0527Z" fill="#407BFF"/>
<path d="M54.6868 63.2087C54.9405 63.2408 54.8137 64.4927 55.5626 66.2068C55.9869 67.1907 56.6048 68.0664 57.3746 68.7748C58.2769 69.6186 59.4001 70.1494 60.5939 70.2963C61.7941 70.3786 62.9897 70.0744 64.0247 69.4232C64.9005 68.8818 65.6582 68.1487 66.2474 67.2725C67.2742 65.751 67.3648 64.4734 67.6185 64.4927C67.7211 64.4927 67.8238 64.8137 67.8238 65.4171C67.8008 66.2769 67.5943 67.1199 67.2198 67.8824C66.6571 69.0349 65.8251 70.0142 64.8038 70.7265C63.5412 71.6722 62.0032 72.1095 60.4649 71.9601C58.9267 71.8107 57.4887 71.0844 56.4082 69.9111C55.5263 69.0147 54.8772 67.8913 54.5237 66.6498C54.2719 65.8215 54.2057 64.9421 54.3305 64.0818C54.4331 63.4847 54.5902 63.1894 54.6868 63.2087Z" fill="white"/>
<path d="M106.287 79.8429C106.226 79.8429 106.921 78.6873 107.591 76.665C108.425 74.0165 108.952 71.2699 109.162 68.4859C109.403 65.7117 109.464 62.923 109.343 60.1399C109.3 59.0678 109.252 58.2139 109.204 57.5719C109.163 57.2614 109.153 56.9473 109.174 56.6346C109.251 56.9371 109.302 57.2466 109.325 57.5591C109.409 58.1561 109.494 59.0228 109.566 60.1271C109.756 62.9326 109.725 65.7499 109.476 68.5501C109.263 71.3602 108.7 74.1279 107.803 76.7805C107.518 77.5806 107.175 78.3556 106.776 79.0982C106.633 79.3608 106.469 79.61 106.287 79.8429Z" fill="#263238"/>
<path d="M16.5321 56.0504C16.4979 56.3621 16.4352 56.6696 16.3449 56.9684C16.2663 57.2573 16.1818 57.6104 16.1033 58.0341C16.0248 58.4579 15.9039 58.9201 15.8315 59.453C15.6197 60.6904 15.4785 61.9403 15.4087 63.1958C15.3274 64.732 15.3476 66.2722 15.4691 67.8054C15.604 69.3358 15.8381 70.8545 16.1697 72.3507C16.447 73.5747 16.7939 74.7795 17.2086 75.9588C17.3717 76.466 17.5589 76.9089 17.7099 77.307C17.8609 77.705 18.0059 78.0389 18.1267 78.3085C18.2644 78.5857 18.3776 78.8758 18.4649 79.1752C18.293 78.9206 18.1434 78.6498 18.0179 78.3663C17.8472 78.0453 17.692 77.7154 17.5529 77.3776C17.3837 76.9924 17.1784 76.5494 17.0032 76.0422C16.5548 74.8661 16.1834 73.6584 15.8919 72.4278C15.5384 70.9173 15.2921 69.3807 15.155 67.8311C15.0319 66.2828 15.0198 64.7268 15.1187 63.1766C15.203 61.9099 15.3685 60.6508 15.614 59.408C15.7046 58.8752 15.8315 58.4065 15.9341 57.9892C16.0368 57.5719 16.1335 57.2188 16.2241 56.9299C16.3041 56.6283 16.4072 56.3342 16.5321 56.0504Z" fill="#263238"/>
<path d="M56.4263 24.7079C56.3801 24.7126 56.3336 24.7126 56.2874 24.7079L55.8827 24.7529C55.5203 24.7914 54.9888 24.8042 54.3063 24.8877C52.3805 25.0864 50.4695 25.4231 48.5864 25.8956C38.8467 28.2666 30.2559 34.3343 24.4264 42.96C21.61 47.1051 19.4777 51.7292 18.1206 56.6346C17.9092 57.328 17.7945 57.8801 17.6918 58.246L17.577 58.6697C17.5662 58.7187 17.55 58.7661 17.5287 58.811C17.5207 58.7621 17.5207 58.7122 17.5287 58.6633C17.5287 58.5478 17.577 58.4065 17.6133 58.2332C17.6978 57.8608 17.7884 57.3023 17.9817 56.5961C18.4858 54.6015 19.132 52.6506 19.9145 50.7603C22.4962 44.4783 26.4266 38.9265 31.3905 34.5498C36.3756 30.2061 42.2481 27.1632 48.5381 25.6645C50.4322 25.2071 52.3566 24.9044 54.2942 24.7593C54.9827 24.6951 55.5022 24.7015 55.8767 24.6823H56.2874C56.384 24.6951 56.4263 24.7015 56.4263 24.7079Z" fill="white"/>
<path d="M18.5132 74.1291C18.2711 73.7315 18.084 73.2991 17.9575 72.8451C17.241 70.6996 16.9072 68.431 16.973 66.1554C16.9557 65.6831 17.0087 65.2107 17.13 64.7559C17.2267 64.7559 17.0938 66.9002 17.4803 69.4938C17.8669 72.0875 18.6038 74.0906 18.5132 74.1291Z" fill="white"/>
<path d="M8.34781 70.8099C8.34781 70.8099 8.20889 70.7072 8.02165 70.4633C7.75473 70.1175 7.52575 69.7406 7.33913 69.3398C6.69412 68.0126 6.44733 66.5073 6.632 65.0265C6.81667 63.5457 7.42394 62.1606 8.37197 61.058C8.64964 60.7202 8.96389 60.4185 9.30817 60.1592C9.42641 60.0534 9.56138 59.9708 9.70681 59.9152C9.74305 59.9666 9.19945 60.3582 8.54109 61.1992C7.67703 62.2991 7.12417 63.6369 6.9467 65.0574C6.76923 66.4779 6.97442 67.9227 7.53845 69.2242C7.96125 70.245 8.39009 70.7714 8.34781 70.8099Z" fill="white"/>
<path d="M63.5716 4.07404C63.1003 4.0189 62.6253 4.00816 62.1522 4.04194C61.5888 4.09448 61.0443 4.28349 60.5604 4.59445C60.0764 4.90541 59.6659 5.33007 59.3603 5.83585C59.0548 6.34163 58.8623 6.91508 58.7976 7.51222C58.7329 8.10936 58.7978 8.71431 58.9872 9.28066C59.1503 9.75039 59.3524 10.2037 59.5912 10.6353C59.5912 10.6353 59.4704 10.5582 59.3013 10.3528C59.0692 10.0556 58.8855 9.71928 58.7577 9.35771C58.5273 8.7582 58.4361 8.10852 58.4919 7.46364C58.5477 6.81875 58.7488 6.19764 59.0783 5.65287C59.4077 5.1081 59.8558 4.65569 60.3845 4.33394C60.9133 4.01219 61.5072 3.83055 62.1159 3.8044C62.4775 3.77774 62.8408 3.81461 63.1911 3.91354C63.4629 3.95848 63.5716 4.05478 63.5716 4.07404Z" fill="white"/>
<path d="M116.216 63.0225C116.15 63.0995 115.214 62.1429 113.8 61.4239C112.387 60.7049 111.1 60.493 111.113 60.3903C112.097 60.3642 113.071 60.6168 113.933 61.1222C114.841 61.5258 115.63 62.1823 116.216 63.0225Z" fill="white"/>
<path d="M80.1454 51.5692C80.1454 51.6591 72.7283 51.7361 63.5837 51.7361C54.4392 51.7361 47.016 51.6591 47.016 51.5692C47.016 51.4793 54.4331 51.4023 63.5837 51.4023C72.7343 51.4023 80.1454 51.4665 80.1454 51.5692Z" fill="white"/>
<path d="M51.8782 91.7135C51.7877 91.7406 51.6944 91.7557 51.6004 91.7584L50.791 91.8355C50.4407 91.8676 50.0119 91.8932 49.5105 91.9061C49.0092 91.9189 48.4415 91.9446 47.8133 91.9061C46.5509 91.9061 45.053 91.8098 43.392 91.6236C41.5945 91.4013 39.81 91.0734 38.0466 90.6413C36.2874 90.1928 34.5532 89.6399 32.8522 88.985C31.4663 88.4455 30.1076 87.8305 28.7813 87.1424C28.1773 86.86 27.7122 86.5646 27.2713 86.3142C26.8303 86.0639 26.4559 85.8392 26.1539 85.6722L25.4593 85.2228C25.3769 85.1743 25.2999 85.1162 25.2297 85.0495C25.2297 85.0495 25.3264 85.0495 25.4895 85.1651L26.2143 85.5567C26.5223 85.7365 26.9028 85.9483 27.3498 86.1987C27.7967 86.4491 28.3041 86.7059 28.8779 86.9755C30.0134 87.5405 31.3966 88.1439 32.9549 88.741C36.3418 90.0317 39.8553 90.9104 43.4283 91.3604C45.0711 91.5658 46.563 91.6814 47.8133 91.7135C48.4173 91.752 49.0213 91.7135 49.5105 91.7135C49.9998 91.7135 50.4347 91.7135 50.785 91.7135H51.5943C51.6883 91.6968 51.7842 91.6968 51.8782 91.7135Z" fill="white"/>
</g>
<defs>
<filter id="filter0_d_6_5364" x="0.870117" y="2.35344" width="123.278" height="106.329" filterUnits="userSpaceOnUse" color-interpolation-filters="sRGB">
<feFlood flood-opacity="0" result="BackgroundImageFix"/>
<feColorMatrix in="SourceAlpha" type="matrix" values="0 0 0 0 0 0 0 0 0 0 0 0 0 0 0 0 0 0 127 0" result="hardAlpha"/>
<feOffset dy="4"/>
<feGaussianBlur stdDeviation="2"/>
<feComposite in2="hardAlpha" operator="out"/>
<feColorMatrix type="matrix" values="0 0 0 0 0 0 0 0 0 0 0 0 0 0 0 0 0 0 0.4 0"/>
<feBlend mode="normal" in2="BackgroundImageFix" result="effect1_dropShadow_6_5364"/>
<feBlend mode="normal" in="SourceGraphic" in2="effect1_dropShadow_6_5364" result="shape"/>
</filter>
</defs>
</svg>
